<svg width="20" height="20" viewBox="0 0 20 20" fill="none" xmlns="http://www.w3.org/2000/svg">
<path d="M5.6868 0.301903C4.74933 0.798431 4.26385 2.02202 4.26385 3.884C4.26385 5.21398 4.31408 5.49771 4.71585 6.20704C5.73702 8.05128 7.9635 8.06902 8.80052 6.22477C9.65429 4.38052 8.6666 0.922563 7.093 0.23097C6.3899 -0.0882263 6.3899 -0.0882263 5.6868 0.301903Z" fill="#3DD5F3"/>
<path d="M13.0864 0.141986C11.9982 0.461182 11.044 2.1813 10.9101 4.07874C10.7762 6.18898 11.5128 7.41257 13.0027 7.55444C14.0238 7.66083 14.8106 7.14657 15.3631 6.01165C15.6979 5.32006 15.7481 5.0186 15.6979 3.68861C15.6477 2.62462 15.5305 1.98623 15.2961 1.4897C14.7771 0.425716 13.9066 -0.106278 13.0864 0.141986Z" fill="#3DD5F3"/>
<path d="M0.848979 6.47189C-0.406557 7.41175 -0.239152 10.781 1.15031 12.2352C2.3054 13.4588 3.89575 13.2637 4.51514 11.8273C4.91692 10.9052 4.91692 10.586 4.59885 9.43333C4.26404 8.24521 3.51072 7.11029 2.74065 6.59603C1.97059 6.11723 1.38467 6.08177 0.848979 6.47189Z" fill="#3DD5F3"/>
<path d="M17.2882 6.54265C16.0662 7.32291 15.1454 9.30902 15.2626 10.8873C15.3463 12.0399 15.7983 12.6428 16.7525 12.9443C18.6275 13.5472 20.4522 10.6567 19.8997 7.9613C19.5817 6.40078 18.4433 5.79786 17.2882 6.54265Z" fill="#3DD5F3"/>
<path d="M8.95137 8.70589C8.26501 9.09602 7.81302 9.68121 7.16014 11.0289C6.64118 12.0575 6.20593 12.6781 5.40239 13.4229C4.26404 14.4692 3.77856 15.2494 3.59442 16.3134C3.36005 17.6434 4.16359 19.2748 5.30194 19.7714C6.05527 20.1083 6.92577 20.0728 8.19805 19.665C9.57077 19.2216 10.3241 19.2216 11.7973 19.665C13.3206 20.126 14.007 20.1083 14.8942 19.6118C16.2167 18.8847 16.7692 17.0405 16.1498 15.4445C15.9991 15.0898 15.3295 14.2209 14.6599 13.547C13.7894 12.6604 13.2537 11.9333 12.8352 11.0644C12.1823 9.66348 11.5964 8.91869 10.9602 8.67042C10.3911 8.43989 9.36988 8.45762 8.95137 8.70589Z" fill="#3DD5F3"/>
</svg>
